<?xml version="1.0" encoding="UTF-8"?>
<svg version="1.1" xmlns="http://www.w3.org/2000/svg" width="1600" height="1600">
<path d="M0 0 C2.6641364 2.140044 5.24925508 4.33241285 7.796875 6.609375 C8.74240234 7.44855469 8.74240234 7.44855469 9.70703125 8.3046875 C29.5732674 27.03958902 40.1030115 54.61364981 41.1171875 81.50390625 C41.85974429 114.2858572 32.313762 142.02110155 9.41943359 166.00732422 C0.02710352 175.28094293 -19.91020565 192.609375 -33.203125 192.609375 C-32.85451416 193.11879639 -32.50590332 193.62821777 -32.14672852 194.15307617 C-27.45876364 202.02230848 -27.40234179 209.50484021 -27.20159912 218.40325928 C-27.09827536 222.67118206 -26.90377685 226.93472711 -26.70703125 231.19921875 C-26.66924561 232.02999939 -26.63145996 232.86078003 -26.5925293 233.71673584 C-25.33057779 259.45706264 -15.17635236 283.15577789 -6.25732422 307.0234375 C3.56080134 333.30675565 12.60128268 359.79713616 21.19067383 386.50830078 C25.78595366 400.76562906 30.6012256 414.80594995 36.6262207 428.5324707 C45.78375932 449.39619776 53.64500895 470.95962723 59.5078125 492.98266602 C61.83353301 501.36912728 65.20584116 509.29295827 68.55004883 517.31542969 C71.71649016 524.92004894 74.73644857 532.55324669 77.546875 540.296875 C77.87469971 541.18342773 78.20252441 542.06998047 78.5402832 542.98339844 C85.38909037 562.07704266 90.19059525 581.82111401 94.98047829 601.50649548 C100.97123139 626.11765892 107.31816224 650.51017894 115.171875 674.60302734 C117.03727213 680.33066804 118.85336559 686.07374206 120.671875 691.81640625 C128.28374118 715.81829318 135.99196973 739.79080645 144.11975098 763.62365723 C144.57196259 764.94980221 145.02337597 766.27621966 145.47399902 767.60290527 C152.33555319 787.89061557 152.33555319 787.89061557 161.484375 807.20800781 C163.16128388 810.27610226 164.8068241 813.36073287 166.453125 816.4453125 C168.43872869 820.16386914 170.42649799 823.88111923 172.43041992 827.58984375 C182.796875 846.8000587 182.796875 846.8000587 182.796875 849.609375 C186.60952292 845.92795953 190.00037107 842.0687862 193.296875 837.921875 C194.069104 836.95326538 194.069104 836.95326538 194.85693359 835.96508789 C201.11040621 828.0459707 206.9522175 819.83187524 212.796875 811.609375 C213.65847048 810.40206984 214.52042361 809.1950198 215.3828125 807.98828125 C216.58821864 806.30129287 217.79344611 804.61418159 218.99755859 802.92626953 C227.42272495 791.11890925 235.94469451 779.38515326 244.56323242 767.71826172 C251.26071313 758.64281788 257.85198131 749.49121541 264.43359375 740.33154297 C270.13609351 732.39578988 275.85687761 724.47928235 281.734375 716.671875 C295.85854058 697.90967984 309.4826709 678.84595121 322.75683594 659.47363281 C327.53265895 652.51457643 332.40971635 645.62801874 337.28955078 638.74169922 C338.77517398 636.64007417 340.25392385 634.53379207 341.73046875 632.42578125 C348.68059834 622.51371862 355.80741885 612.74301571 363.01464844 603.01660156 C365.94927585 599.05284453 368.87256249 595.08074442 371.796875 591.109375 C372.95957427 589.53120495 374.12233477 587.95308001 375.28515625 586.375 C375.86217285 585.59189453 376.43918945 584.80878906 377.03369141 584.00195312 C378.82294471 581.57399933 380.6125993 579.14634177 382.40234375 576.71875 C382.99563477 575.9138916 383.58892578 575.1090332 384.20019531 574.27978516 C385.38300306 572.67519347 386.56594425 571.07070015 387.74902344 569.46630859 C390.42981595 565.82917019 393.1065947 562.18929956 395.76953125 558.5390625 C401.25044933 551.02740009 406.80701309 543.58651999 412.52001953 536.24951172 C413.38963683 535.13247749 414.25774211 534.01426488 415.12451172 532.89501953 C420.56171593 525.87579839 426.11107372 518.98227546 431.87597656 512.22924805 C435.30753435 508.20623377 438.64482052 504.12135017 441.91796875 499.96875 C443.13622447 498.43896528 444.37736519 496.9270229 445.64453125 495.4375 C457.52138939 481.29257654 467.54524906 464.11262688 475.796875 447.609375 C472.50534199 446.65272255 469.38291913 446.39210917 465.96484375 446.21484375 C464.83626953 446.14587891 463.70769531 446.07691406 462.54492188 446.00585938 C460.18356235 445.86726065 457.82153768 445.73953842 455.45898438 445.62304688 C447.4188225 445.10595052 442.51875337 444.02947945 436.484375 438.484375 C433.18408367 432.86165644 432.22743474 426.93229978 433.796875 420.609375 C433.26320313 420.46242188 432.72953125 420.31546875 432.1796875 420.1640625 C418.51675136 416.05099868 405.49654998 406.48282772 398.30859375 394.03125 C380.20120684 359.70359839 382.6907836 306.16400075 393.16064453 269.62109375 C401.08270169 244.57207187 418.51097614 222.90937575 441.796875 210.609375 C444.75124045 209.31558968 447.71679685 208.10195908 450.73510742 206.96582031 C455.19809331 205.28370864 459.49691744 203.37708804 463.80908203 201.34008789 C480.68459749 193.41571679 498.31604952 188.09603074 516.796875 185.609375 C517.71597656 185.47917969 518.63507813 185.34898437 519.58203125 185.21484375 C538.63787206 183.00589775 557.44668138 184.57366095 575.60717773 190.69970703 C581.03565819 192.49152837 586.49462676 193.62298316 592.109375 194.671875 C612.19977757 198.54024834 629.27739993 208.03747735 644.16601562 222.07226562 C645.2536251 223.09735384 646.35139558 224.11176674 647.45898438 225.11523438 C665.9835837 241.90247386 676.10994864 262.23149927 680.796875 286.609375 C681.02375 287.78628906 681.250625 288.96320313 681.484375 290.17578125 C688.15289661 331.62249543 673.63028784 364.52960997 649.859375 397.4765625 C638.8169187 412.52502268 625.54343417 426.8786376 610.68359375 438.22265625 C605.84403001 442.07130383 603.58957404 445.37345358 601.68359375 451.27734375 C600.796875 453.609375 600.796875 453.609375 599.23828125 455.2512207 C597.15854476 458.65368932 597.64554985 461.82997468 597.84765625 465.671875 C598.08363231 474.87663643 596.60802816 483.20551442 594.54837036 492.1428833 C593.57038631 496.41985029 592.67388892 500.71396723 591.7734375 505.0078125 C591.59605545 505.85072845 591.4186734 506.69364441 591.23591614 507.56210327 C587.1910518 526.96391702 586.57217197 546.1569071 586.2479248 565.90283203 C585.72152707 597.35218692 581.76320436 628.35234511 574.6640625 659.00390625 C569.21402113 682.88797806 567.88916037 705.6489932 567.8462677 730.11820984 C567.76049912 764.22421941 561.61691335 796.76301648 554.88723755 830.05703735 C545.83374107 874.88096249 538.35488139 919.96324726 531.00509644 965.09048462 C522.83495579 1015.24408409 522.83495579 1015.24408409 517.91796875 1039.08203125 C516.57508831 1045.61599473 515.38966841 1052.1766127 514.2277832 1058.74487305 C514.08300537 1059.55867432 513.93822754 1060.37247559 513.7890625 1061.2109375 C513.63767822 1062.0659082 513.48629395 1062.92087891 513.33032227 1063.80175781 C512.95017374 1065.80253955 512.53244691 1067.79633494 512.08959961 1069.78417969 C509.79916155 1080.25929964 508.80965191 1090.69392527 507.89163208 1101.36276245 C506.01201157 1122.98276769 503.59927075 1144.52198209 500.859375 1166.046875 C500.77381222 1166.72179237 500.68824944 1167.39670975 500.60009384 1168.09207916 C498.4536277 1185.01151334 496.01833559 1201.8377383 493.04138184 1218.6307373 C490.49270621 1233.22998797 489.86973164 1247.80560562 489.31422424 1262.59463501 C488.63738971 1280.449783 486.85249237 1298.17884929 482.796875 1315.609375 C483.86421875 1315.71765625 484.9315625 1315.8259375 486.03125 1315.9375 C492.11822937 1317.02355856 496.03621365 1320.42188666 499.859375 1325.171875 C501.92283442 1330.5368695 498.41856213 1336.65363406 496.515625 1341.7734375 C495.83573634 1343.62267732 495.15597235 1345.47196298 494.47631836 1347.32128906 C494.12020477 1348.28651489 493.76409119 1349.25174072 493.39718628 1350.24621582 C490.16559595 1359.02237444 486.98516229 1367.81741236 483.796875 1376.609375 C483.53187195 1377.33854126 483.2668689 1378.06770752 482.99383545 1378.81896973 C476.23022878 1397.45883062 471.66293996 1416.19972695 467.796875 1435.609375 C448.14318024 1436.03563131 428.82523449 1435.25311988 409.24633789 1433.50073242 C408.38924728 1433.42824783 407.53215668 1433.35576324 406.64909363 1433.28108215 C405.03929687 1433.14454612 403.43029114 1432.99818287 401.82246399 1432.84013367 C397.66139252 1432.43907809 397.66139252 1432.43907809 393.72986794 1433.59105206 C389.21250633 1435.15946121 384.77763402 1434.87888239 380.02963257 1434.85420227 C378.37939746 1434.85759913 378.37939746 1434.85759913 376.69582427 1434.86106461 C372.99556293 1434.86637454 369.29546796 1434.85751488 365.59521484 1434.84887695 C362.94006319 1434.84999025 360.28492484 1434.85192368 357.629776 1434.85498047 C351.87992599 1434.86021759 346.13010966 1434.85869105 340.38026047 1434.85320473 C331.1360993 1434.84488913 321.89200784 1434.85634231 312.64785767 1434.8704071 C309.45478647 1434.87501161 306.26171508 1434.87946213 303.06864357 1434.88384533 C302.26957869 1434.88494347 301.47051381 1434.88604161 300.64723485 1434.88717303 C291.52719581 1434.89937235 282.40715443 1434.90689415 273.28710938 1434.9128418 C272.45403065 1434.91338986 271.62095193 1434.91393792 270.76262839 1434.91450258 C259.22280229 1434.9217403 247.68299467 1434.92108603 236.14316811 1434.91584757 C216.11881724 1434.90710043 196.09460736 1434.92319577 176.0703125 1434.97265625 C175.27360163 1434.97453709 174.47689075 1434.97641793 173.65603712 1434.97835577 C121.6430957 1435.10331494 69.76689143 1436.41984558 17.80390054 1438.6371718 C11.20333195 1438.91880228 4.60268991 1439.19865349 -1.99804688 1439.47631836 C-3.26612108 1439.5297274 -4.53419528 1439.58313643 -5.84069598 1439.63816392 C-40.64950874 1441.08997065 -75.44043493 1441.38082102 -110.27501202 1441.25221771 C-116.09779166 1441.2329784 -121.92015366 1441.24057185 -127.74291992 1441.26123047 C-165.53264237 1441.3919414 -203.00130635 1440.53560913 -240.69378662 1437.75394249 C-263.05778965 1436.10726224 -285.30431072 1435.11462879 -307.73046875 1435.04296875 C-308.42153638 1435.04063445 -309.11260402 1435.03830015 -309.82461309 1435.03589511 C-318.14478272 1435.01044225 -326.4647613 1435.01939465 -334.7849319 1435.0377925 C-347.94889984 1435.063606 -361.11293786 1435.00328813 -374.2766993 1434.93334699 C-375.71343247 1434.92571917 -377.15016685 1434.91831919 -378.58690238 1434.91115069 C-401.73890205 1434.79430442 -424.79281628 1434.16030973 -447.890625 1432.546875 C-449.23893149 1432.45409448 -450.58724887 1432.3614722 -451.93557739 1432.26901245 C-454.52529157 1432.09099927 -457.11499825 1431.91287685 -459.70469666 1431.7346344 C-461.53889915 1431.6088224 -461.53889915 1431.6088224 -463.41015625 1431.48046875 C-464.58876724 1431.39921249 -465.76737823 1431.31795624 -466.98170471 1431.23423767 C-502.18934988 1428.89487621 -537.29069769 1430.89452338 -572.4452343 1433.02963257 C-589.48655613 1434.06299173 -606.49929535 1435.03405208 -623.578125 1435.109375 C-624.73799423 1435.12436035 -624.73799423 1435.12436035 -625.92129517 1435.13964844 C-635.93111796 1435.24893344 -643.08131378 1434.05674794 -651.453125 1428.421875 C-657.21438872 1422.52967347 -659.88981465 1415.39335171 -662.203125 1407.609375 C-662.533125 1406.619375 -662.863125 1405.629375 -663.203125 1404.609375 C-665.32900575 1403.54145614 -665.32900575 1403.54145614 -667.890625 1402.734375 C-675.03778369 1400.02232905 -678.92663689 1396.8227593 -682.27022362 1389.88477516 C-683.84757165 1386.03753254 -684.61565528 1382.12197577 -685.33911133 1378.03979492 C-685.50559331 1377.1283607 -685.67207529 1376.21692648 -685.84360218 1375.27787304 C-687.65517261 1364.81497233 -688.36455547 1354.308667 -689.02734375 1343.72265625 C-689.17484192 1341.53230092 -689.32376325 1339.34204104 -689.47398376 1337.15187073 C-689.79175034 1332.49687044 -690.10310591 1327.84150954 -690.40924072 1323.18572998 C-691.23009761 1310.73962835 -692.10619878 1298.29736022 -692.98828125 1285.85546875 C-693.12259426 1283.95671368 -693.12259426 1283.95671368 -693.25962067 1282.01959991 C-695.12132738 1255.81031788 -697.37770594 1229.64459292 -699.828125 1203.484375 C-699.92343884 1202.46526535 -700.01875267 1201.4461557 -700.1169548 1200.39616394 C-701.37366295 1186.97351724 -702.65751798 1173.55356957 -703.9584198 1160.13513947 C-704.19439327 1157.69950095 -704.42968476 1155.26379773 -704.66467285 1152.82806396 C-706.39763807 1134.85400472 -706.39763807 1134.85400472 -708.18945312 1116.88574219 C-709.30666475 1105.86315219 -710.36857517 1094.8442969 -711.2578125 1083.80078125 C-713.43393163 1057.44953356 -717.54117569 1031.8001627 -722.68237305 1005.89501953 C-723.20981658 1003.23489648 -723.73631445 1000.57458908 -724.26171875 997.9140625 C-724.39070242 997.261068 -724.51968609 996.6080735 -724.65257835 995.93529129 C-728.71680821 975.28824216 -731.63144352 954.4890005 -734.203125 933.609375 C-734.32002686 932.6641095 -734.43692871 931.71884399 -734.55737305 930.74493408 C-737.72539965 904.93940631 -739.82669644 879.10991173 -741.50906372 853.16809082 C-742.64842135 835.60442369 -744.13103279 818.16050442 -746.2734375 800.69140625 C-746.90351979 795.51138087 -747.39862989 790.34291618 -747.80677795 785.1410675 C-749.10896122 768.74148591 -751.3301145 752.47018013 -753.55693436 736.17617798 C-753.8948748 733.70327683 -754.23141596 731.23018786 -754.56784058 728.75708008 C-759.64756349 691.47917783 -765.94636112 654.73325142 -774.02392578 617.984375 C-784.07125202 572.24262782 -784.07125202 572.24262782 -786.703125 554.171875 C-786.85112549 553.16914551 -786.99912598 552.16641602 -787.15161133 551.13330078 C-789.53210078 533.32153476 -789.34076436 515.29074483 -789.265625 497.359375 C-789.26059177 495.23437607 -789.25603213 493.10937597 -789.25195312 490.984375 C-789.24111079 485.85934507 -789.22395051 480.73437368 -789.203125 475.609375 C-790.28327881 475.33673828 -790.28327881 475.33673828 -791.38525391 475.05859375 C-812.83420702 469.46227884 -828.24180769 455.25961161 -839.65234375 436.72265625 C-851.61707172 416.10428515 -858.55493306 392.11834097 -865.890625 369.546875 C-866.09913086 368.90842651 -866.30763672 368.26997803 -866.52246094 367.61218262 C-874.24097155 343.85306324 -875.07839671 321.97951809 -863.77124023 299.23486328 C-861.66893137 294.91992358 -860.32847413 290.7374466 -859.203125 286.046875 C-856.22510649 273.98337628 -850.60674397 263.80443069 -842.203125 254.609375 C-841.55150391 253.89418701 -841.55150391 253.89418701 -840.88671875 253.16455078 C-825.85213684 236.86836224 -807.3614948 226.73589366 -786.203125 220.609375 C-785.02878906 220.2278125 -783.85445312 219.84625 -782.64453125 219.453125 C-769.41598197 215.6619338 -755.81086438 215.95304985 -742.15856934 215.75578308 C-736.50148284 215.65644335 -730.88603361 215.2728825 -725.24682617 214.83422852 C-694.69520912 212.57722689 -670.30405634 221.09255165 -647.203125 240.609375 C-617.55080942 267.57378284 -602.10928535 304.30464045 -597.203125 343.609375 C-595.71021898 375.8357873 -599.45069034 403.27896978 -621.203125 428.609375 C-621.90308594 429.44339844 -622.60304688 430.27742188 -623.32421875 431.13671875 C-628.75944871 437.42453381 -634.66709727 442.49863836 -641.203125 447.609375 C-640.58598633 448.08431396 -639.96884766 448.55925293 -639.33300781 449.04858398 C-631.31463468 455.39731594 -624.1301197 462.40808804 -616.94042969 469.66625977 C-614.94782742 471.67722139 -612.94723567 473.67996195 -610.9453125 475.68164062 C-599.77494718 486.88310036 -599.77494718 486.88310036 -594.64941406 492.91577148 C-592.09845196 495.90294638 -589.38948397 498.7443845 -586.703125 501.609375 C-582.11058524 506.53467929 -577.59485389 511.50354385 -573.203125 516.609375 C-572.22967277 517.72960666 -571.25565727 518.84934896 -570.28125 519.96875 C-560.79646184 530.87129423 -551.34797482 541.77175992 -542.46386719 553.17260742 C-537.35811746 559.7185096 -532.10866958 566.14541638 -526.86035156 572.57714844 C-523.59343691 576.58330601 -520.33608958 580.59725048 -517.07861328 584.61108398 C-514.37746874 587.93822222 -511.67112926 591.26083435 -508.953125 594.57421875 C-502.8474823 602.03014782 -496.8939713 609.57544578 -491.07592773 617.25805664 C-487.40588655 622.08700022 -483.62311713 626.80436374 -479.765625 631.484375 C-474.42356483 637.98210731 -469.39299119 644.67134407 -464.43823242 651.46777344 C-460.56048437 656.78453586 -456.60186664 662.02746386 -452.578125 667.234375 C-443.79546584 678.65329281 -435.52229091 690.31971496 -427.98266602 702.59667969 C-413.41064441 726.15896615 -395.98178905 748.4973842 -378.453125 769.921875 C-373.18869713 776.35634815 -368.10231564 782.89081537 -363.203125 789.609375 C-362.47657715 790.60275879 -362.47657715 790.60275879 -361.73535156 791.61621094 C-355.46723385 800.19871058 -349.30340398 808.84288942 -343.31054688 817.61987305 C-336.41438937 827.71368315 -329.31445765 837.66643899 -322.203125 847.609375 C-320.3151499 844.77741235 -319.52458733 842.79884302 -318.56640625 839.58203125 C-318.24494629 838.50945068 -317.92348633 837.43687012 -317.59228516 836.33178711 C-317.2369873 835.12401611 -316.88168945 833.91624512 -316.515625 832.671875 C-316.12301721 831.34704714 -315.73027082 830.02226035 -315.33740234 828.69750977 C-314.20257239 824.86074713 -313.07754149 821.02116506 -311.95501709 817.18078613 C-311.17799178 814.52342139 -310.39885684 811.86668055 -309.61962891 809.20996094 C-300.95947454 779.64925627 -292.68220003 749.99043068 -284.53614902 720.28504181 C-283.53740314 716.64307521 -282.53839826 713.00117978 -281.5390625 709.359375 C-281.25060109 708.30812691 -281.25060109 708.30812691 -280.95631218 707.23564148 C-277.86897657 695.98895182 -274.73562719 684.75637365 -271.515625 673.546875 C-271.22615997 672.53772034 -271.22615997 672.53772034 -270.93084717 671.50817871 C-269.002495 664.79043492 -267.04881905 658.08043141 -265.078125 651.375 C-254.55780364 615.41413583 -247.74142292 578.7601561 -240.82369995 541.97518921 C-239.83563426 536.72227685 -238.84242054 531.47033956 -237.84858894 526.2185154 C-237.15160039 522.53224889 -236.4580653 518.84540296 -235.77288818 515.15692139 C-231.18353832 490.4588041 -225.57627689 466.1401009 -218.46078491 442.03457642 C-213.1268083 423.90551881 -208.21474686 405.66503244 -203.40900803 387.39036179 C-202.90233972 385.46636 -202.39323046 383.54300154 -201.88406372 381.61965942 C-194.02322122 351.88897877 -187.49329005 322.14690045 -182.3928833 291.83837891 C-181.88989255 288.86649376 -181.37601246 285.89653254 -180.86237812 282.92647171 C-178.25602421 267.83036706 -175.8385709 252.72335586 -173.859375 237.53125 C-173.69351395 236.26941895 -173.52765289 235.00758789 -173.35676575 233.70751953 C-171.95536294 222.57229125 -171.52198223 211.90125576 -172.890625 200.734375 C-173.54616734 194.96737414 -172.06176695 190.03828963 -170.203125 184.609375 C-170.98816406 184.10148438 -171.77320313 183.59359375 -172.58203125 183.0703125 C-189.87615851 171.73894568 -198.21188143 160.34885395 -203.515625 140.109375 C-204.10726245 137.92000095 -204.70109506 135.73121917 -205.296875 133.54296875 C-205.60367188 132.41358887 -205.91046875 131.28420898 -206.2265625 130.12060547 C-208.21090344 122.9859076 -210.37705994 115.90312857 -212.53833008 108.8203125 C-219.23588755 86.57527711 -219.45662451 65.9123995 -208.296875 45.03515625 C-201.87910654 34.1726495 -193.0069848 25.03137573 -184.3515625 15.94921875 C-181.99436275 13.47161329 -179.75507732 10.93576598 -177.578125 8.296875 C-162.362266 -9.18437244 -139.29512963 -20.51610984 -117.703125 -27.828125 C-117.01041504 -28.06305664 -116.31770508 -28.29798828 -115.60400391 -28.54003906 C-75.54685886 -41.37582017 -32.27228593 -24.08614511 0 0 Z M-141.25 49.78125 C-150.18970874 60.78965167 -148.83192925 76.75414257 -147.50097656 90.15527344 C-146.08840965 101.79389852 -143.51594973 113.10601561 -138.203125 123.609375 C-137.89777832 124.22377441 -137.59243164 124.83817383 -137.27783203 125.47119141 C-132.1940446 135.56244791 -126.29899226 143.74071819 -118.203125 151.609375 C-117.44386719 152.35445313 -116.68460938 153.09953125 -115.90234375 153.8671875 C-112.42108506 157.10587261 -110.10544215 159.22234996 -105.203125 159.609375 C-104.59364014 159.29057373 -103.98415527 158.97177246 -103.35620117 158.64331055 C-100.83670354 157.43341459 -99.01383958 157.35924487 -96.23046875 157.265625 C-89.56284691 156.75281603 -83.92486453 154.60685313 -77.765625 152.109375 C-76.07360962 151.43769287 -76.07360962 151.43769287 -74.34741211 150.75244141 C-70.95643099 149.39355823 -67.57795628 148.00783581 -64.203125 146.609375 C-63.2234375 146.20557617 -62.24375 145.80177734 -61.234375 145.38574219 C-50.99679524 141.11888573 -41.77832461 136.74773189 -33.203125 129.609375 C-32.378125 129.01125 -31.553125 128.413125 -30.703125 127.796875 C-27.72111142 125.18761312 -25.70861387 122.25812266 -23.640625 118.921875 C-23.25003906 118.29974121 -22.85945312 117.67760742 -22.45703125 117.03662109 C-15.01736769 104.99397777 -12.91799665 95.59377457 -16.203125 81.609375 C-21.75919325 62.85646552 -31.06551995 44.90698506 -48.078125 34.421875 C-76.27654974 19.80473238 -120.05204511 27.28876352 -141.25 49.78125 Z M-102.203125 224.609375 C-102.27305664 226.28628418 -102.34298828 227.96319336 -102.41503906 229.69091797 C-103.91016921 265.13840612 -105.74007738 300.49677066 -108.95245361 335.83825684 C-109.19784242 338.55097719 -109.43735665 341.26415592 -109.67529297 343.97753906 C-111.74150967 367.39743612 -114.72754254 390.58949387 -118.43847656 413.80419922 C-119.05195148 417.64309422 -119.6472304 421.48446094 -120.23461914 425.3274231 C-124.45655872 452.89707237 -129.75484877 480.25921367 -135.203125 507.609375 C-135.42164124 508.70773682 -135.64015747 509.80609863 -135.86529541 510.93774414 C-178.46082919 724.64783929 -178.46082919 724.64783929 -237.03515625 852.95703125 C-239.35158713 856.7849155 -241.45438155 860.72423494 -243.58520508 864.6574707 C-246.35436324 869.70981585 -249.25162626 874.68740248 -252.140625 879.671875 C-252.78523682 880.78804199 -253.42984863 881.90420898 -254.09399414 883.05419922 C-257.46080969 888.88379935 -260.84072645 894.70551005 -264.234375 900.51953125 C-274.28898882 917.76331296 -274.28898882 917.76331296 -283.203125 935.609375 C-283.51668945 936.27565918 -283.83025391 936.94194336 -284.15332031 937.62841797 C-285.09519633 939.65197228 -285.99861607 941.68841602 -286.890625 943.734375 C-287.41011719 944.91257812 -287.92960937 946.09078125 -288.46484375 947.3046875 C-289.4074716 951.5240693 -288.32807559 952.95028951 -286.203125 956.609375 C-285.37486282 961.43717347 -285.56589903 966.08297301 -287.828125 970.484375 C-290.55282594 974.06950781 -292.05610055 975.79050463 -296.203125 977.609375 C-301.96001659 978.32073613 -307.19355115 978.4653046 -312.578125 976.171875 C-322.36803137 966.61506164 -329.01101304 954.08911523 -336.109375 942.49609375 C-341.28198548 934.14131359 -347.24449696 926.41065739 -353.203125 918.609375 C-354.50667819 916.89856533 -355.81005677 915.18762259 -357.11328125 913.4765625 C-359.16598594 910.78212555 -361.2193101 908.08817318 -363.2746582 905.39575195 C-367.32142388 900.09231074 -371.33911568 894.76884494 -375.328125 889.421875 C-381.24632402 881.49954493 -387.31870459 873.70058335 -393.40771484 865.90917969 C-395.81384167 862.82708631 -398.21214025 859.73894333 -400.6105957 856.65087891 C-405.35586447 850.54210197 -410.11011218 844.44062003 -414.890625 838.359375 C-415.33664062 837.7919458 -415.78265625 837.2245166 -416.2421875 836.63989258 C-418.4126386 833.88042103 -420.58666809 831.12385372 -422.765625 828.37109375 C-435.3296199 812.47634373 -447.5127622 796.29579153 -459.48535156 779.95214844 C-462.38383345 775.99907393 -465.2941888 772.0547589 -468.203125 768.109375 C-469.36851737 766.52736422 -470.53388196 764.94533297 -471.69921875 763.36328125 C-474.04324517 760.18186889 -476.38983382 757.00236884 -478.73828125 753.82421875 C-487.17577609 742.400413 -495.51196138 730.90695658 -503.80761719 719.37988281 C-512.19386124 707.73090551 -520.65726341 696.14182449 -529.203125 684.609375 C-529.63608887 684.02430176 -530.06905273 683.43922852 -530.51513672 682.83642578 C-536.13926618 675.24559043 -541.93894034 667.80285953 -547.79589844 660.39160156 C-550.10388744 657.46857594 -552.40302091 654.53860593 -554.703125 651.609375 C-555.61718051 650.44660909 -556.53124302 649.28384868 -557.4453125 648.12109375 C-559.30771976 645.75105807 -561.16670691 643.37839136 -563.0234375 641.00390625 C-570.8621465 630.98641719 -578.8810323 621.13876138 -587.1171875 611.44506836 C-590.01578456 608.02879239 -592.87471458 604.58427923 -595.703125 601.109375 C-600.32865493 595.43034359 -605.05779544 589.84344678 -609.80029297 584.26220703 C-611.17790088 582.63909433 -612.55244257 581.0134446 -613.92578125 579.38671875 C-619.20618083 573.13311377 -624.5195324 566.90960844 -629.85864258 560.70605469 C-632.90532119 557.15531358 -635.8874455 553.56148361 -638.828125 549.921875 C-642.67773637 545.17960013 -646.73025171 540.66008539 -650.86328125 536.1640625 C-652.86147348 533.98239685 -654.82461389 531.77926191 -656.765625 529.546875 C-663.32866903 522.00700581 -670.07580625 514.63766567 -676.87915039 507.31494141 C-680.3244244 503.59642729 -683.66278378 499.80605533 -686.8984375 495.90234375 C-688.13374833 494.37473845 -688.13374833 494.37473845 -690.203125 494.609375 C-690.42871094 494.05765625 -690.65429688 493.5059375 -690.88671875 492.9375 C-692.59866194 489.90984973 -694.78969511 487.79611751 -697.265625 485.359375 C-698.61333984 484.02132812 -698.61333984 484.02132812 -699.98828125 482.65625 C-701.82288769 480.49625661 -701.82288769 480.49625661 -703.203125 480.609375 C-703.29761809 487.63336166 -703.30673709 494.61868959 -702.86427307 501.63204956 C-702.05876388 514.40898724 -701.96831605 527.19332294 -701.81607056 539.99124146 C-700.65803632 631.65809319 -689.28509573 722.46214348 -660.9140625 843.44921875 C-652.90596366 874.25550072 -647.88199001 904.83963834 -645.3659668 936.57794189 C-644.91541567 942.19851659 -644.42973883 947.8162613 -643.95050049 953.43444824 C-643.76533896 955.61274007 -643.58256952 957.79122431 -643.39990234 959.96972656 C-642.51444663 970.4437794 -641.48107963 980.89887271 -640.40441895 991.35482788 C-638.35333869 1011.3144204 -636.52193012 1031.27197769 -635.96875 1051.33984375 C-635.93289795 1052.62093018 -635.8970459 1053.9020166 -635.86010742 1055.22192383 C-635.79985699 1057.6211989 -635.75185463 1060.02083464 -635.7199707 1062.4206543 C-635.37675945 1077.60303177 -631.64674075 1091.13012191 -626.76318359 1105.36404419 C-616.72885561 1134.77881754 -611.77751323 1163.83298237 -608.203125 1194.609375 C-607.95296434 1196.75197238 -607.70263241 1198.89454977 -607.45214844 1201.03710938 C-607.3231012 1202.14171509 -607.19405396 1203.2463208 -607.06109619 1204.38439941 C-606.79583307 1206.65387733 -606.5303291 1208.9233271 -606.2645874 1211.19274902 C-605.61747493 1216.72272712 -604.97524844 1222.25314903 -604.34570312 1227.78515625 C-603.66530268 1233.73090613 -602.94706629 1239.67125993 -602.203125 1245.609375 C-602.10842926 1246.38684082 -602.01373352 1247.16430664 -601.91616821 1247.96533203 C-599.87968708 1264.20139323 -595.64928747 1280.01988508 -591.69671631 1295.8706665 C-590.94764525 1298.88627153 -590.20903276 1301.90439985 -589.47037411 1304.92256927 C-588.75507424 1307.84041366 -588.03395933 1310.75679559 -587.31097603 1313.67274475 C-586.96766301 1315.05981605 -586.62599214 1316.44729489 -586.28602409 1317.83518982 C-585.81361746 1319.75940542 -585.33266868 1321.68151782 -584.85131836 1323.60351562 C-584.58056992 1324.69426392 -584.30982147 1325.78501221 -584.03086853 1326.90881348 C-583.28815465 1329.79222035 -583.28815465 1329.79222035 -581.203125 1332.609375 C-579.56790894 1332.44332764 -579.56790894 1332.44332764 -577.8996582 1332.27392578 C-573.69324845 1331.84806273 -569.48623502 1331.42840972 -565.27905273 1331.01025391 C-563.48852903 1330.83150209 -561.69815344 1330.65125787 -559.90795898 1330.46923828 C-532.77105704 1327.71320682 -505.83740094 1326.2546342 -478.57336426 1326.35142517 C-476.15795899 1326.35952649 -473.74256325 1326.36446568 -471.32714844 1326.36877441 C-416.11964976 1326.48136405 -360.30672654 1326.70033681 -305.50390625 1333.98046875 C-259.14488837 1340.04350872 -211.89330342 1339.1362472 -165.2890625 1336.51171875 C-164.35535765 1336.45933485 -163.42165279 1336.40695095 -162.45965385 1336.35297966 C-158.56962868 1336.13395237 -154.67971639 1335.91297351 -150.78983974 1335.69132519 C-147.74013332 1335.5176085 -144.69039219 1335.34452152 -141.640625 1335.171875 C-140.09301168 1335.08419672 -140.09301168 1335.08419672 -138.51413345 1334.99474716 C-91.16135134 1332.33839171 -43.86558947 1332.14831588 3.546875 1332.046875 C19.51695533 1332.01206896 35.48700632 1331.97307354 51.45703125 1331.91796875 C52.46938497 1331.91452965 53.48173868 1331.91109055 54.52476978 1331.90754724 C105.68900122 1331.72828883 156.83320881 1330.72490398 207.984375 1329.609375 C210.08786511 1329.56363939 212.19135531 1329.5179075 214.29484558 1329.47217941 C231.95392199 1329.08773907 249.61285 1328.69675465 267.27151489 1328.2938385 C295.44534628 1327.65154803 323.61973835 1327.08853204 351.796875 1326.609375 C352.04367539 1325.72691746 352.04367539 1325.72691746 352.29546165 1324.8266325 C353.057293 1322.11024712 353.82427189 1319.39533983 354.59130859 1316.68041992 C354.84992172 1315.75537407 355.10853485 1314.83032822 355.37498474 1313.87725067 C357.88563409 1305.0160996 361.04789917 1296.4836336 364.421875 1287.921875 C364.9878196 1286.4645188 365.5529234 1285.00683581 366.1171875 1283.54882812 C366.66918699 1282.1275716 367.22126882 1280.70634705 367.7734375 1279.28515625 C368.03835999 1278.60043243 368.30328247 1277.91570862 368.57623291 1277.2102356 C369.65956384 1274.42908431 370.7654546 1271.67757012 372.01464844 1268.96630859 C374.63199518 1263.22921043 375.39564317 1257.65878516 376.01094055 1251.44232178 C376.89752184 1242.81112492 378.85366738 1234.47646103 380.859375 1226.046875 C381.05795105 1225.20289154 381.2565271 1224.35890808 381.46112061 1223.48934937 C387.73202649 1196.8801936 395.43728314 1171.00494692 404.48095703 1145.20825195 C410.26207515 1128.67879077 414.98720972 1112.56683864 417.45300293 1095.20730591 C419.66487562 1079.70280072 422.14695722 1064.29187699 426.828125 1049.30859375 C428.16325017 1044.21035367 428.82714209 1039.07532628 429.546875 1033.859375 C432.64637438 1012.24773597 436.40969019 990.7447978 440.484375 969.296875 C443.34029863 954.22526966 446.08759778 939.13403423 448.79605103 924.03530884 C449.28968544 921.28511573 449.78697696 918.53562573 450.28768921 915.78671265 C458.10917874 885.47199277 458.10917874 885.47199277 454.796875 855.609375 C451.98177507 853.3320249 451.98177507 853.3320249 448.796875 853.609375 C448.796875 852.949375 448.796875 852.289375 448.796875 851.609375 C448.136875 851.609375 447.476875 851.609375 446.796875 851.609375 C447.08047387 850.1702616 447.37408899 848.73311982 447.671875 847.296875 C447.83429688 846.49636719 447.99671875 845.69585938 448.1640625 844.87109375 C448.796875 842.609375 448.796875 842.609375 450.796875 839.609375 C452.6796875 839.71875 452.6796875 839.71875 454.796875 840.609375 C455.8515625 843.375 455.8515625 843.375 456.671875 846.859375 C458.3063491 852.74477382 459.48266842 855.55653292 464.796875 858.609375 C465.786875 858.609375 466.776875 858.609375 467.796875 858.609375 C470.21257076 846.49211211 471.20765371 834.82342278 471.27767944 822.47784424 C471.50551725 789.91478748 476.3447458 758.46896853 481.85430908 726.45544434 C485.46725965 705.45545534 488.74558955 684.69747865 489.109375 663.359375 C489.38027251 648.18077921 491.08545844 633.183535 492.796875 618.109375 C492.93461334 616.89423218 493.07235168 615.67908936 493.21426392 614.42712402 C495.58637908 593.63039201 495.58637908 593.63039201 496.796875 586.609375 C496.85779512 585.15216572 496.88451751 583.69264041 496.859375 582.234375 C496.83875 581.038125 496.818125 579.841875 496.796875 578.609375 C494.27020862 581.73762861 492.55974835 585.00461998 490.796875 588.609375 C495.30657474 563.83937789 495.30657474 563.83937789 498.359375 553.171875 C502.79432066 537.43138184 504.61537026 520.88441935 505.796875 504.609375 C502.86124174 508.09593998 500.60281546 511.58896155 498.4375 515.59375 C492.78165403 525.75723685 486.09078139 535.25619654 479.546875 544.859375 C477.66158634 547.63603242 475.77774585 550.41366847 473.89398193 553.19136047 C472.65752307 555.01421458 471.42042727 556.83663682 470.18267822 558.65861511 C465.67676116 565.29517089 461.21088156 571.95743757 456.77435303 578.64056396 C443.79468975 598.18383679 430.20860971 617.33214016 416.73730469 636.53759766 C413.20359077 641.58128149 409.70776149 646.64902314 406.234375 651.734375 C401.82885851 658.17657198 397.2877826 664.5131392 392.70288086 670.82861328 C388.52227107 676.59015708 384.40711693 682.39476687 380.31445312 688.21899414 C376.70854912 693.3413391 373.0429696 698.41771047 369.359375 703.484375 C364.82644745 709.72130857 360.43240914 716.03788907 356.109375 722.421875 C351.74386174 728.85777813 347.23296336 735.08218985 342.43359375 741.203125 C339.25624967 745.27207696 336.22109824 749.44409619 333.171875 753.609375 C322.62969925 767.97823771 311.78044446 782.11077326 300.8046875 796.15039062 C297.06695879 800.94202229 293.41472422 805.78937139 289.796875 810.671875 C285.03800863 817.07990864 280.04095895 823.25883677 274.9375 829.39477539 C271.31937188 833.7472118 267.77151929 838.14169938 264.296875 842.609375 C255.83720314 853.45978947 247.16861449 864.15063784 237.8671875 874.29296875 C235.61304797 876.81505317 233.48410968 879.41501723 231.359375 882.046875 C228.28350912 885.85025003 225.10934334 889.51020152 221.796875 893.109375 C217.66794175 897.59623435 213.77675387 902.21754861 209.98046875 906.98828125 C207.85487912 909.53974931 205.58079632 911.82545368 203.234375 914.171875 C200.28761303 917.42027402 199.35028305 919.27365898 199.484375 923.671875 C199.55398438 924.50203125 199.62359375 925.3321875 199.6953125 926.1875 C199.9210622 931.57076205 197.74847263 935.51503772 194.296875 939.484375 C191.796875 941.609375 191.796875 941.609375 188.796875 943.609375 C186.48233529 946.83909665 186.48233529 946.83909665 185.796875 950.609375 C185.013125 950.91875 184.229375 951.228125 183.421875 951.546875 C180.87357372 952.53812538 180.87357372 952.53812538 178.796875 953.609375 C176.89224833 953.54881121 174.98760291 953.48418525 173.08422852 953.39233398 C165.29334107 953.06719395 160.56441847 953.52896965 154.0625 958.1953125 C150.18889641 960.61297543 146.28831903 960.9345132 141.796875 960.609375 C136.56611613 959.06587238 133.19498308 956.8812823 129.796875 952.609375 C127.37569046 946.77652134 127.19320126 941.51535264 129.5859375 935.6875 C131.69717039 931.67100816 134.24105771 929.31744777 137.796875 926.609375 C137.26320313 925.95195313 136.72953125 925.29453125 136.1796875 924.6171875 C109.8672891 891.0210802 93.79610417 846.11670227 78.796875 806.609375 C78.54764282 805.95300049 78.29841064 805.29662598 78.04162598 804.62036133 C66.40287529 773.92221689 55.46120995 742.99376193 45.234375 711.796875 C44.94870667 710.92984955 44.66303833 710.0628241 44.36871338 709.16952515 C33.36183603 675.69521031 23.74072866 641.75468457 13.83314896 607.94321442 C12.96578563 604.983441 12.09803793 602.02378051 11.23019409 599.06414795 C7.08116485 584.91389953 2.93716767 570.76218206 -1.203125 556.609375 C-1.60601494 555.2322295 -1.60601494 555.2322295 -2.01704407 553.82726288 C-9.2235352 529.19246481 -16.4011367 504.54939867 -23.54096222 479.89519501 C-24.19665849 477.63169771 -24.85285726 475.36834669 -25.50921631 473.1050415 C-35.88569883 437.31975042 -45.96188125 401.46515524 -55.640625 365.484375 C-55.97866024 364.22831514 -55.97866024 364.22831514 -56.32352448 362.94688034 C-57.82829143 357.35381847 -59.32886216 351.75964781 -60.82421875 346.1640625 C-61.0238195 345.41718044 -61.22342026 344.67029839 -61.42906952 343.90078354 C-63.70944996 335.35599382 -65.92547442 326.79970792 -68.01953125 318.20703125 C-69.85171044 310.71020817 -72.12667748 303.44997216 -74.703125 296.171875 C-81.76541469 275.55624201 -86.90851246 254.257999 -87.9921875 232.4296875 C-88.14005511 229.38139589 -88.14005511 229.38139589 -89.203125 225.609375 C-95.638125 225.114375 -95.638125 225.114375 -102.203125 224.609375 Z M481.796875 254.609375 C480.70052734 254.69638672 480.70052734 254.69638672 479.58203125 254.78515625 C476.39324691 256.25743961 475.30323539 259.57694898 473.859375 262.609375 C473.51527588 263.32270996 473.17117676 264.03604492 472.81665039 264.77099609 C460.65253451 290.85281909 466.46982854 316.22578512 475.796875 342.609375 C479.85655687 353.47913409 484.49058058 363.84629697 490.796875 373.609375 C491.22613281 374.30417969 491.65539063 374.99898437 492.09765625 375.71484375 C497.24314489 383.57554138 503.8019159 386.37585318 512.546875 388.484375 C513.82111328 388.82082031 513.82111328 388.82082031 515.12109375 389.1640625 C519.95852252 390.50347579 519.95852252 390.50347579 524.796875 389.609375 C526.19399774 387.65340316 527.53467407 385.65501099 528.796875 383.609375 C529.40273437 383.6815625 530.00859375 383.75375 530.6328125 383.828125 C542.19161826 385.10848502 553.71083933 385.85379894 563.921875 379.234375 C567.04909343 376.37908861 567.15670177 375.55710989 567.796875 371.609375 C568.50972656 371.33738281 569.22257812 371.06539063 569.95703125 370.78515625 C573.48921823 369.32272395 575.88724412 367.08660563 578.609375 364.484375 C579.40093994 363.73643677 579.40093994 363.73643677 580.20849609 362.97338867 C581.26341077 361.97368238 582.31556693 360.97105602 583.36474609 359.96533203 C584.55341564 358.83988528 585.77481909 357.74913037 587.00390625 356.66796875 C595.33601855 349.08252231 603.12283847 339.15177659 603.68725586 327.56884766 C603.66000809 323.21179903 603.30409219 318.9350471 602.796875 314.609375 C602.69004395 313.68092773 602.58321289 312.75248047 602.47314453 311.79589844 C600.04796601 292.37472664 596.47847936 267.33191092 585.859375 250.546875 C576.39749184 244.56078566 561.76485839 246.21110859 550.859375 246.234375 C549.98714294 246.23425415 549.11491089 246.2341333 548.21624756 246.23400879 C525.66667935 246.27821254 503.67588538 249.04824229 481.796875 254.609375 Z M-787.203125 289.609375 C-797.61860218 300.12442653 -804.40568469 310.24031177 -804.578125 325.359375 C-804.30736921 349.43689791 -792.40665 375.17542142 -777.203125 393.609375 C-774.07518494 396.6483689 -770.79746218 399.15190485 -767.203125 401.609375 C-766.51992188 402.18171875 -765.83671875 402.7540625 -765.1328125 403.34375 C-761.65758888 405.90722293 -759.3706999 406.74885131 -755.03125 406.23046875 C-752.37388625 405.56052156 -749.78222977 404.84238368 -747.1640625 404.046875 C-742.31576277 402.5768366 -737.41082135 401.55433743 -732.45263672 400.52661133 C-715.70849176 397.0350354 -698.7809486 392.92375001 -684.203125 383.609375 C-683.213125 383.01125 -682.223125 382.413125 -681.203125 381.796875 C-671.25487498 370.91597654 -673.61170607 347.35722495 -674.203125 333.609375 C-675.13621472 318.00928121 -677.36238579 298.76094846 -689.140625 287.484375 C-715.43291958 265.85754563 -761.13231087 264.63688786 -787.203125 289.609375 Z M496.796875 576.609375 C497.796875 578.609375 497.796875 578.609375 497.796875 578.609375 Z " fill="#3AA6B9" transform="translate(891.203125,126.390625)"/>
<path d="M0 0 C0.33 0 0.66 0 1 0 C0.72862726 6.74361255 -0.06291047 11.44175596 -4 17 C-4.99 17.66 -5.98 18.32 -7 19 C-5.58632741 14.65328707 -4.02739359 10.3864361 -2.375 6.125 C-1.92898438 4.97257812 -1.48296875 3.82015625 -1.0234375 2.6328125 C-0.68570312 1.76398438 -0.34796875 0.89515625 0 0 Z " fill="#3AA6B9" transform="translate(1398,1537)"/>
<path d="" fill="#3AA6B9" transform="translate(0,0)"/>
<path d="" fill="#3AA6B9" transform="translate(0,0)"/>
</svg>
